<?xml version="1.0" encoding="UTF-8" standalone="no"?><!DOCTYPE svg PUBLIC "-//W3C//DTD SVG 1.1//EN" "http://www.w3.org/Graphics/SVG/1.1/DTD/svg11.dtd"><svg width="100%" height="100%" viewBox="0 0 67 67" version="1.1" xmlns="http://www.w3.org/2000/svg" xmlns:xlink="http://www.w3.org/1999/xlink" xml:space="preserve" xmlns:serif="http://www.serif.com/" style="fill-rule:evenodd;clip-rule:evenodd;stroke-linejoin:round;stroke-miterlimit:2;"><path d="M12.5,4.167c-2.286,0 -4.167,1.881 -4.167,4.167c0,6.25 4.029,10.938 7.804,15.25c3.167,3.625 5.9,6.846 7.812,9.75c-1.912,2.904 -4.642,6.133 -7.812,9.758c-3.775,4.313 -7.804,8.992 -7.804,15.242c0,2.286 1.881,4.167 4.167,4.167l41.667,0c2.286,0 4.167,-1.881 4.167,-4.167c0,-6.25 -4.029,-10.929 -7.804,-15.242c-3.167,-3.625 -5.9,-6.854 -7.812,-9.758c1.912,-2.904 4.642,-6.125 7.812,-9.75c3.775,-4.312 7.804,-9 7.804,-15.25c0,-2.286 -1.881,-4.167 -4.167,-4.167l-41.667,0Zm35.05,8.333c-0.992,1.833 -1.271,3.292 -3.287,5.592c-3.517,4.017 -7.908,8.217 -10.492,13.375c-0.289,0.58 -0.439,1.219 -0.438,1.867c-0.001,-0.647 -0.152,-1.284 -0.442,-1.862c-2.579,-5.162 -6.971,-9.363 -10.488,-13.379c-2.017,-2.304 -2.296,-3.754 -3.292,-5.592l28.438,-0Z" style="fill:url(#_Linear1);fill-rule:nonzero;"/><g id="Layer1"><path d="M56.374,28.535c0.015,-1.071 0.888,-1.931 1.959,-1.931c1.071,0 1.944,0.86 1.959,1.931l0.04,2.799l2.799,0.04c1.071,0.015 1.931,0.888 1.931,1.959c0,1.071 -0.86,1.944 -1.931,1.959l-2.799,0.04l-0.04,2.799c-0.015,1.071 -0.888,1.931 -1.959,1.931c-1.071,0 -1.944,-0.86 -1.959,-1.931l-0.04,-2.799l-2.799,-0.04c-1.071,-0.015 -1.931,-0.888 -1.931,-1.959c0,-1.071 0.86,-1.944 1.931,-1.959l2.799,-0.04l0.04,-2.799Z" style="fill:url(#_Linear2);"/></g><defs><linearGradient id="_Linear1" x1="0" y1="0" x2="1" y2="0" gradientUnits="userSpaceOnUse" gradientTransform="matrix(50,0,0,58.333333,8.333333,33.333333)"><stop offset="0" style="stop-color:#ffff80;stop-opacity:1"/><stop offset="1" style="stop-color:#ff4508;stop-opacity:1"/></linearGradient><linearGradient id="_Linear2" x1="0" y1="0" x2="1" y2="0" gradientUnits="userSpaceOnUse" gradientTransform="matrix(13.459801,0,0,13.459801,51.603433,33.333333)"><stop offset="0" style="stop-color:#f0ff1f;stop-opacity:1"/><stop offset="1" style="stop-color:#ff2c00;stop-opacity:1"/></linearGradient></defs></svg>