<?xml version="1.0" encoding="UTF-8" standalone="no"?><!DOCTYPE svg PUBLIC "-//W3C//DTD SVG 1.1//EN" "http://www.w3.org/Graphics/SVG/1.1/DTD/svg11.dtd"><svg width="100%" height="100%" viewBox="0 0 67 67" version="1.1" xmlns="http://www.w3.org/2000/svg" xmlns:xlink="http://www.w3.org/1999/xlink" xml:space="preserve" xmlns:serif="http://www.serif.com/" style="fill-rule:evenodd;clip-rule:evenodd;stroke-linecap:round;"><clipPath id="_clip1"><rect x="0" y="0" width="66.667" height="66.667"/></clipPath><g clip-path="url(#_clip1)"><path d="M29.167,6.25l8.333,0m-4.167,0l0,11.979m0,-5.208c-12.857,0 -23.438,10.58 -23.438,23.438c0,12.857 10.58,23.438 23.438,23.438l0,-5.208m0,5.208c12.857,0 23.438,-10.58 23.438,-23.438c0,-12.857 -10.58,-23.438 -23.438,-23.438m22.396,23.438l-4.167,0m-41.146,0l4.167,0m18.75,0l8.333,-8.333" style="fill:none;fill-rule:nonzero;stroke:url(#_Linear2);stroke-width:5.21px;"/><circle cx="33.333" cy="36.458" r="4.167" style="fill:#e0e0e0;stroke:url(#_Linear3);stroke-width:4.17px;stroke-linecap:butt;stroke-linejoin:round;stroke-miterlimit:2;"/></g><defs><linearGradient id="_Linear2" x1="0" y1="0" x2="1" y2="0" gradientUnits="userSpaceOnUse" gradientTransform="matrix(46.875,0,0,53.645833,9.895833,33.072917)"><stop offset="0" style="stop-color:#ffc01f;stop-opacity:1"/><stop offset="1" style="stop-color:#e84b00;stop-opacity:1"/></linearGradient><linearGradient id="_Linear3" x1="0" y1="0" x2="1" y2="0" gradientUnits="userSpaceOnUse" gradientTransform="matrix(8.333333,0,0,8.333333,29.166667,36.458333)"><stop offset="0" style="stop-color:#fcff36;stop-opacity:1"/><stop offset="1" style="stop-color:#ff2608;stop-opacity:1"/></linearGradient></defs></svg>